<?xml version="1.0" encoding="UTF-8" standalone="no"?>
<!-- Created with Inkscape (http://www.inkscape.org/) -->

<svg
   xmlns:dc="http://purl.org/dc/elements/1.1/"
   xmlns:cc="http://creativecommons.org/ns#"
   xmlns:rdf="http://www.w3.org/1999/02/22-rdf-syntax-ns#"
   xmlns:svg="http://www.w3.org/2000/svg"
   xmlns="http://www.w3.org/2000/svg"
   xmlns:sodipodi="http://sodipodi.sourceforge.net/DTD/sodipodi-0.dtd"
   xmlns:inkscape="http://www.inkscape.org/namespaces/inkscape"
   width="25"
   height="25"
   id="svg2"
   version="1.1"
   inkscape:version="0.48.1 r9760"
   sodipodi:docname="ship_e.svg">
  <defs
     id="defs4">
    <inkscape:perspective
       sodipodi:type="inkscape:persp3d"
       inkscape:vp_x="0 : 12.5 : 1"
       inkscape:vp_y="0 : 1000 : 0"
       inkscape:vp_z="25 : 12.5 : 1"
       inkscape:persp3d-origin="12.5 : 8.3333333 : 1"
       id="perspective3761" />
  </defs>
  <sodipodi:namedview
     id="base"
     pagecolor="#ffffff"
     bordercolor="#666666"
     borderopacity="1.0"
     inkscape:pageopacity="0.0"
     inkscape:pageshadow="2"
     inkscape:zoom="11.313709"
     inkscape:cx="7.6048679"
     inkscape:cy="9.2494303"
     inkscape:document-units="px"
     inkscape:current-layer="layer1"
     showgrid="false"
     showguides="true"
     inkscape:guide-bbox="true"
     inkscape:window-width="1366"
     inkscape:window-height="712"
     inkscape:window-x="0"
     inkscape:window-y="26"
     inkscape:window-maximized="1">
    <sodipodi:guide
       orientation="1,0"
       position="115.71429,-118.57143"
       id="guide3759" />
  </sodipodi:namedview>
  <metadata
     id="metadata7">
    <rdf:RDF>
      <cc:Work
         rdf:about="">
        <dc:format>image/svg+xml</dc:format>
        <dc:type
           rdf:resource="http://purl.org/dc/dcmitype/StillImage" />
        <dc:title />
      </cc:Work>
    </rdf:RDF>
  </metadata>
  <g
     inkscape:label="Ebene 1"
     inkscape:groupmode="layer"
     id="layer1"
     transform="translate(0,-1027.3622)">
    <path
       transform="matrix(-1,0,0,1,18.539037,1031.2487)"
       d="m -1.0267857,10.133928 a 1.3616072,8.1696424 0 1 1 -2.7232144,0 1.3616072,8.1696424 0 1 1 2.7232144,0 z"
       sodipodi:ry="8.1696424"
       sodipodi:rx="1.3616072"
       sodipodi:cy="10.133928"
       sodipodi:cx="-2.3883929"
       id="path3882"
       style="fill:#0000ff;stroke-width:0.026;stroke-miterlimit:4;stroke-dasharray:none"
       sodipodi:type="arc" />
    <path
       sodipodi:type="arc"
       style="fill:#00ffff;stroke-width:0.026;stroke-miterlimit:4;stroke-dasharray:none"
       id="path3884"
       sodipodi:cx="-2.3883929"
       sodipodi:cy="10.133928"
       sodipodi:rx="1.3616072"
       sodipodi:ry="8.1696424"
       d="m -1.0267857,10.133928 a 1.3616072,8.1696424 0 1 1 -2.7232144,0 1.3616072,8.1696424 0 1 1 2.7232144,0 z"
       transform="matrix(-0.66120217,0,0,0.66120217,19.348219,1034.6821)" />
    <path
       sodipodi:type="arc"
       style="fill:#0000ff;stroke-width:0.026;stroke-miterlimit:4;stroke-dasharray:none"
       id="path3783"
       sodipodi:cx="-2.3883929"
       sodipodi:cy="10.133928"
       sodipodi:rx="1.3616072"
       sodipodi:ry="8.1696424"
       d="m -1.0267857,10.133928 a 1.3616072,8.1696424 0 1 1 -2.7232144,0 1.3616072,8.1696424 0 1 1 2.7232144,0 z"
       transform="translate(6.4609634,1031.2435)" />
    <path
       transform="matrix(0.66120217,0,0,0.66120217,5.6517811,1034.6769)"
       d="m -1.0267857,10.133928 a 1.3616072,8.1696424 0 1 1 -2.7232144,0 1.3616072,8.1696424 0 1 1 2.7232144,0 z"
       sodipodi:ry="8.1696424"
       sodipodi:rx="1.3616072"
       sodipodi:cy="10.133928"
       sodipodi:cx="-2.3883929"
       id="path3790"
       style="fill:#00ffff;stroke-width:0.026;stroke-miterlimit:4;stroke-dasharray:none"
       sodipodi:type="arc" />
    <path
       inkscape:connector-curvature="0"
       style="fill:#b3b3b3;stroke-width:0.026;stroke-miterlimit:4"
       d="m 12.46875,1027.3622 c -2.142997,0.042 -4.2550105,0.7289 -4.1875,5.3125 -10.327381,-2.872 -8.2038691,10.7203 -6.34375,13.875 2.6975652,-3.1005 4.140152,-1.8903 4.21875,3.9375 1.8941288,1.154 2.5919534,1.866 6.3125,1.875 0.02281,10e-5 0.03946,0 0.0625,0 3.720546,-0.01 4.41837,-0.721 6.3125,-1.875 0.0786,-5.8278 1.521185,-7.038 4.21875,-3.9375 1.860119,-3.1547 3.983631,-16.747 -6.34375,-13.875 0.06751,-4.5838 -2.044409,-5.2708 -4.1875,-5.3125 -0.02068,-4e-4 -0.04181,3e-4 -0.0625,0 z"
       id="rect3780" />
    <path
       style="fill:#999999;stroke-width:0.026;stroke-miterlimit:4"
       d="m 7.6216773,1033.1185 c -0.9465124,6.6065 0.1826189,12.7683 2.5647087,18.6615 l -3.2343516,-1.2061 c -0.4234165,-4.49 -0.6547753,-9.4122 -4.7767857,-5.5804 -1.98835357,-6.8473 0.1637122,-13.8637 5.4464286,-11.875 z"
       id="rect3785"
       inkscape:connector-curvature="0"
       sodipodi:nodetypes="ccccc" />
    <path
       style="fill:#333333;stroke-width:0.026;stroke-miterlimit:4"
       d="m 6.4721147,1033.7981 c -0.6226108,3.564 -0.5717485,7.2963 0.820749,11.3641 -1.2280436,-3.087 -2.8338422,-3.4352 -4.7350896,-1.6415 -0.7644085,-3.5414 0.3810457,-10.2045 3.9143406,-9.7226 z"
       id="rect3795"
       inkscape:connector-curvature="0"
       sodipodi:nodetypes="cccc" />
    <path
       inkscape:connector-curvature="0"
       style="fill:#333333;stroke-width:0.026;stroke-miterlimit:4"
       d="m 12.46875,1032.0185 c -1.357645,-0.048 -2.7998816,0.3799 -3.875,1.3437 -0.2290922,5.87 0.4277663,11.958 2.71875,18.5 l 1.15625,0.1563 0.0625,0 1.15625,-0.1563 c 2.290984,-6.542 2.947842,-12.63 2.71875,-18.5 -1.075118,-0.9638 -2.517355,-1.3918 -3.875,-1.3437 -0.02081,7e-4 -0.04173,-10e-4 -0.0625,0 z"
       id="rect3788" />
    <path
       style="fill:#000000;stroke:none"
       d="m 12.595975,1032.5044 0,19.0279 0.02973,0 1.10005,-0.1486 c 2.179632,-6.2241 2.804563,-12.0162 2.586606,-17.6009 -1.022862,-0.9169 -2.394999,-1.3242 -3.686656,-1.2784 -0.0099,3e-4 -0.01981,2e-4 -0.02973,0 z"
       id="rect3909"
       inkscape:connector-curvature="0" />
    <path
       inkscape:connector-curvature="0"
       style="fill:#00ffff;stroke-width:0.026;stroke-miterlimit:4"
       d="m 12.46875,1044.1122 0,0.031 -0.65625,0.2812 -0.5625,1.625 c 0.251418,0.9698 0.331331,2.3041 1.21875,2.2813 0.02252,-6e-4 0.03893,0 0.0625,0 0.887419,0.023 0.967332,-1.3115 1.21875,-2.2813 l -0.5625,-1.625 -0.65625,-0.2812 0,-0.031 -0.03125,0 -0.03125,0 z"
       id="rect3805" />
    <path
       inkscape:connector-curvature="0"
       style="fill:#ff0000;stroke-width:0.026;stroke-miterlimit:4"
       d="m 12.46875,1033.4872 c -4.103516,0.3688 -2.6349854,5.8866 -1.3125,14.25 0.234568,-0.8109 0.622392,-1.1342 1.3125,-1.125 0.0225,-10e-4 0.04059,3e-4 0.0625,0 0.690108,-0.01 1.077932,0.3454 1.3125,1.1563 1.322486,-8.3635 2.791015,-13.9125 -1.3125,-14.2813 -0.02176,-0 -0.04043,0 -0.0625,0 z"
       id="rect3800" />
    <path
       style="fill:#ff0000;stroke-width:0.026;stroke-miterlimit:4"
       d="m 7.4072774,1050.1963 c 0.1233319,-1.1044 -0.1610757,-3.2994 -0.4146781,-4.7209 l 0.5657277,0.1227 1.9084821,5.532 z"
       id="rect3841"
       inkscape:connector-curvature="0"
       sodipodi:nodetypes="ccccc" />
    <path
       sodipodi:nodetypes="ccccc"
       inkscape:connector-curvature="0"
       id="path3890"
       d="m 17.378323,1033.1237 c 0.946512,6.6065 -0.182619,12.7683 -2.564709,18.6615 l 3.234352,-1.2061 c 0.423416,-4.49 0.654775,-9.4122 4.776785,-5.5804 1.988354,-6.8473 -0.163712,-13.8637 -5.446428,-11.875 z"
       style="fill:#999999;stroke-width:0.026;stroke-miterlimit:4" />
    <path
       sodipodi:nodetypes="cccc"
       inkscape:connector-curvature="0"
       id="path3894"
       d="m 18.527885,1033.8033 c 0.622611,3.564 0.571749,7.2963 -0.820749,11.3641 1.228044,-3.087 2.833842,-3.4352 4.73509,-1.6415 0.764408,-3.5414 -0.381046,-10.2045 -3.914341,-9.7226 z"
       style="fill:#333333;stroke-width:0.026;stroke-miterlimit:4" />
    <path
       sodipodi:nodetypes="ccccc"
       inkscape:connector-curvature="0"
       id="path3900"
       d="m 17.592723,1050.2015 c -0.123332,-1.1044 0.161075,-3.2994 0.414678,-4.7209 l -0.565728,0.1227 -1.908482,5.532 z"
       style="fill:#ff0000;stroke-width:0.02600000000000000;stroke-miterlimit:4" />
    <path
       inkscape:connector-curvature="0"
       style="fill:#ff0000;stroke-width:0.026;stroke-miterlimit:4"
       d="m 12.46875,1027.6747 c -1.864843,0.2011 -4.2093802,1.4207 -3.71875,4.8125 1.2426588,-1.0208 2.446973,-1.3508 3.71875,-1.4687 0.02053,0 0.042,-0 0.0625,0 1.271777,0.1179 2.476091,0.4479 3.71875,1.4687 0.49063,-3.3918 -1.853907,-4.6114 -3.71875,-4.8125 -0.01989,-0 -0.04273,0 -0.0625,0 z"
       id="rect3777" />
    <path
       style="fill:#800000;fill-rule:evenodd;stroke:none"
       d="m 12.519883,1033.7524 0,12.6376 c 0.02166,-0 0.03908,3e-4 0.06018,0 0.664481,-0.01 1.037903,0.3325 1.263761,1.1133 1.273376,-8.0529 2.687371,-13.3958 -1.263761,-13.7509 l -0.06018,0 z"
       id="rect3130"
       inkscape:connector-curvature="0" />
    <path
       style="fill:#800000;stroke:none"
       d="m 12.805482,1028.1064 c -0.02562,0 -0.0511,0.022 -0.07693,0.026 l 0,2.7181 c 0.02557,-0 0.05129,0 0.07693,0 l 0.05129,0 c 1.043591,0.097 2.031823,0.3676 3.051521,1.2053 0.4026,-2.7833 -1.521274,-3.784 -3.051521,-3.9491 l -0.05129,0 z"
       id="rect3904"
       inkscape:connector-curvature="0" />
  </g>
</svg>
