<?xml version="1.0" encoding="UTF-8" standalone="no"?>
<!-- Created with Inkscape (http://www.inkscape.org/) -->

<svg
   xmlns:dc="http://purl.org/dc/elements/1.1/"
   xmlns:cc="http://creativecommons.org/ns#"
   xmlns:rdf="http://www.w3.org/1999/02/22-rdf-syntax-ns#"
   xmlns:svg="http://www.w3.org/2000/svg"
   xmlns="http://www.w3.org/2000/svg"
   xmlns:sodipodi="http://sodipodi.sourceforge.net/DTD/sodipodi-0.dtd"
   xmlns:inkscape="http://www.inkscape.org/namespaces/inkscape"
   width="25"
   height="25"
   id="svg2"
   version="1.1"
   inkscape:version="0.48.2 r9819"
   sodipodi:docname="ship_g.svg">
  <defs
     id="defs4" />
  <sodipodi:namedview
     id="base"
     pagecolor="#ffffff"
     bordercolor="#666666"
     borderopacity="1.0"
     inkscape:pageopacity="0.0"
     inkscape:pageshadow="2"
     inkscape:zoom="22.627418"
     inkscape:cx="10.521096"
     inkscape:cy="13.237564"
     inkscape:document-units="px"
     inkscape:current-layer="layer1"
     showgrid="false"
     showguides="true"
     inkscape:guide-bbox="true"
     inkscape:window-width="1280"
     inkscape:window-height="977"
     inkscape:window-x="1276"
     inkscape:window-y="-4"
     inkscape:window-maximized="1">
    <sodipodi:guide
       orientation="1,0"
       position="115.71429,-118.57143"
       id="guide3759" />
  </sodipodi:namedview>
  <metadata
     id="metadata7">
    <rdf:RDF>
      <cc:Work
         rdf:about="">
        <dc:format>image/svg+xml</dc:format>
        <dc:type
           rdf:resource="http://purl.org/dc/dcmitype/StillImage" />
        <dc:title></dc:title>
      </cc:Work>
    </rdf:RDF>
  </metadata>
  <g
     inkscape:label="Ebene 1"
     inkscape:groupmode="layer"
     id="layer1"
     transform="translate(0,-1027.3622)">
    <path
       inkscape:connector-curvature="0"
       style="fill:#1a1a1a;stroke-width:0.02600000000000000;stroke-miterlimit:4"
       d="m 12.46875,1027.3622 c -2.142997,0.042 -4.2550105,0.7289 -4.1875,5.3125 -10.327381,-2.872 -8.2038691,10.7203 -6.34375,13.875 2.6975652,-3.1005 4.140152,-1.8903 4.21875,3.9375 1.8941288,1.154 2.5919534,1.866 6.3125,1.875 0.02281,10e-5 0.03946,0 0.0625,0 3.720546,-0.01 4.41837,-0.721 6.3125,-1.875 0.0786,-5.8278 1.521185,-7.038 4.21875,-3.9375 1.860119,-3.1547 3.983631,-16.747 -6.34375,-13.875 0.06751,-4.5838 -2.044409,-5.2708 -4.1875,-5.3125 -0.02068,-4e-4 -0.04181,3e-4 -0.0625,0 z"
       id="rect3780" />
    <path
       style="fill:#333333;stroke-width:0.02600000000000000;stroke-miterlimit:4"
       d="m 7.6216773,1033.1185 c -0.9465124,6.6065 0.1826189,12.7683 2.5647087,18.6615 l -3.2343516,-1.2061 c -0.4234165,-4.49 -0.6547753,-9.4122 -4.7767857,-5.5804 -1.98835357,-6.8473 0.1637122,-13.8637 5.4464286,-11.875 z"
       id="rect3785"
       inkscape:connector-curvature="0"
       sodipodi:nodetypes="ccccc" />
    <path
       inkscape:connector-curvature="0"
       style="fill:#333333;stroke-width:0.02600000000000000;stroke-miterlimit:4"
       d="m 12.46875,1032.0185 c -1.357645,-0.048 -2.7998816,0.3799 -3.875,1.3437 -0.2290922,5.87 0.4277663,11.958 2.71875,18.5 l 1.15625,0.1563 0.0625,0 1.15625,-0.1563 c 2.290984,-6.542 2.947842,-12.63 2.71875,-18.5 -1.075118,-0.9638 -2.517355,-1.3918 -3.875,-1.3437 -0.02081,7e-4 -0.04173,-10e-4 -0.0625,0 z"
       id="rect3788" />
    <path
       sodipodi:nodetypes="ccccc"
       inkscape:connector-curvature="0"
       id="path3890"
       d="m 17.378323,1033.1237 c 0.946512,6.6065 -0.182619,12.7683 -2.564709,18.6615 l 3.234352,-1.2061 c 0.423416,-4.49 0.654775,-9.4122 4.776785,-5.5804 1.988354,-6.8473 -0.163712,-13.8637 -5.446428,-11.875 z"
       style="fill:#333333;stroke-width:0.02600000000000000;stroke-miterlimit:4" />
    <path
       inkscape:connector-curvature="0"
       style="fill:#333333;stroke-width:0.02600000000000000;stroke-miterlimit:4"
       d="m 12.46875,1027.6747 c -1.864843,0.2011 -4.2093802,1.4207 -3.71875,4.8125 1.2426588,-1.0208 2.446973,-1.3508 3.71875,-1.4687 0.02053,0 0.042,-0 0.0625,0 1.271777,0.1179 2.476091,0.4479 3.71875,1.4687 0.49063,-3.3918 -1.853907,-4.6114 -3.71875,-4.8125 -0.01989,-0 -0.04273,0 -0.0625,0 z"
       id="rect3777" />
  </g>
</svg>
