<?xml version="1.0" encoding="UTF-8" standalone="no"?>
<!-- Created with Inkscape (http://www.inkscape.org/) -->

<svg
   xmlns:dc="http://purl.org/dc/elements/1.1/"
   xmlns:cc="http://creativecommons.org/ns#"
   xmlns:rdf="http://www.w3.org/1999/02/22-rdf-syntax-ns#"
   xmlns:svg="http://www.w3.org/2000/svg"
   xmlns="http://www.w3.org/2000/svg"
   xmlns:xlink="http://www.w3.org/1999/xlink"
   xmlns:sodipodi="http://sodipodi.sourceforge.net/DTD/sodipodi-0.dtd"
   xmlns:inkscape="http://www.inkscape.org/namespaces/inkscape"
   width="25"
   height="25"
   id="svg2"
   version="1.1"
   inkscape:version="0.48.1 r9760"
   sodipodi:docname="ship_f.svg">
  <defs
     id="defs4">
    <linearGradient
       id="linearGradient4436">
      <stop
         style="stop-color:#4d4d4d;stop-opacity:1;"
         offset="0"
         id="stop4438" />
      <stop
         style="stop-color:#b2b2b2;stop-opacity:1;"
         offset="1"
         id="stop4440" />
    </linearGradient>
    <linearGradient
       inkscape:collect="always"
       xlink:href="#linearGradient4436"
       id="linearGradient4442"
       x1="0.39243577"
       y1="1039.8622"
       x2="24.607564"
       y2="1039.8622"
       gradientUnits="userSpaceOnUse"
       gradientTransform="matrix(1.0324124,0,0,1,-0.40515557,0)" />
  </defs>
  <sodipodi:namedview
     id="base"
     pagecolor="#ffffff"
     bordercolor="#666666"
     borderopacity="1.0"
     inkscape:pageopacity="0.0"
     inkscape:pageshadow="2"
     inkscape:zoom="15.047129"
     inkscape:cx="25.636596"
     inkscape:cy="24.7334"
     inkscape:document-units="px"
     inkscape:current-layer="layer1"
     showgrid="false"
     showguides="true"
     inkscape:guide-bbox="true"
     inkscape:window-width="1366"
     inkscape:window-height="712"
     inkscape:window-x="0"
     inkscape:window-y="26"
     inkscape:window-maximized="1">
    <sodipodi:guide
       orientation="1,0"
       position="115.71429,-118.57143"
       id="guide3759" />
  </sodipodi:namedview>
  <metadata
     id="metadata7">
    <rdf:RDF>
      <cc:Work
         rdf:about="">
        <dc:format>image/svg+xml</dc:format>
        <dc:type
           rdf:resource="http://purl.org/dc/dcmitype/StillImage" />
        <dc:title />
      </cc:Work>
    </rdf:RDF>
  </metadata>
  <g
     inkscape:label="Ebene 1"
     inkscape:groupmode="layer"
     id="layer1"
     transform="translate(0,-1027.3622)">
    <path
       transform="matrix(-1.0324124,0,0,1,18.734777,1031.2487)"
       d="m -1.0267857,10.133928 c 0,4.511969 -0.6096123,8.169643 -1.3616072,8.169643 -0.7519949,0 -1.3616072,-3.657674 -1.3616072,-8.169643 0,-4.5119686 0.6096123,-8.1696421 1.3616072,-8.1696421 0.7519949,0 1.3616072,3.6576735 1.3616072,8.1696421 z"
       sodipodi:ry="8.1696424"
       sodipodi:rx="1.3616072"
       sodipodi:cy="10.133928"
       sodipodi:cx="-2.3883929"
       id="path3882"
       style="fill:#0000ff;stroke-width:0.02600000000000000;stroke-miterlimit:4;stroke-dasharray:none;fill-opacity:1"
       sodipodi:type="arc" />
    <path
       sodipodi:type="arc"
       style="fill:#00ffff;stroke-width:0.026;stroke-miterlimit:4;stroke-dasharray:none"
       id="path3884"
       sodipodi:cx="-2.3883929"
       sodipodi:cy="10.133928"
       sodipodi:rx="1.3616072"
       sodipodi:ry="8.1696424"
       d="m -1.0267857,10.133928 c 0,4.511969 -0.6096123,8.169643 -1.3616072,8.169643 -0.7519949,0 -1.3616072,-3.657674 -1.3616072,-8.169643 0,-4.5119686 0.6096123,-8.1696421 1.3616072,-8.1696421 0.7519949,0 1.3616072,3.6576735 1.3616072,8.1696421 z"
       transform="matrix(-0.68263336,0,0,0.66120217,19.570187,1034.6821)" />
    <path
       sodipodi:type="arc"
       style="fill:#0000ff;stroke-width:0.02600000000000000;stroke-miterlimit:4;stroke-dasharray:none"
       id="path3783"
       sodipodi:cx="-2.3883929"
       sodipodi:cy="10.133928"
       sodipodi:rx="1.3616072"
       sodipodi:ry="8.1696424"
       d="m -1.0267857,10.133928 c 0,4.511969 -0.6096123,8.169643 -1.3616072,8.169643 -0.7519949,0 -1.3616072,-3.657674 -1.3616072,-8.169643 0,-4.5119686 0.6096123,-8.1696421 1.3616072,-8.1696421 0.7519949,0 1.3616072,3.6576735 1.3616072,8.1696421 z"
       transform="matrix(1.0324124,0,0,1,6.2652235,1031.2435)" />
    <path
       transform="matrix(0.68263336,0,0,0.66120217,5.4298137,1034.6769)"
       d="m -1.0267857,10.133928 c 0,4.511969 -0.6096123,8.169643 -1.3616072,8.169643 -0.7519949,0 -1.3616072,-3.657674 -1.3616072,-8.169643 0,-4.5119686 0.6096123,-8.1696421 1.3616072,-8.1696421 0.7519949,0 1.3616072,3.6576735 1.3616072,8.1696421 z"
       sodipodi:ry="8.1696424"
       sodipodi:rx="1.3616072"
       sodipodi:cy="10.133928"
       sodipodi:cx="-2.3883929"
       id="path3790"
       style="fill:#00ffff;stroke-width:0.026;stroke-miterlimit:4;stroke-dasharray:none"
       sodipodi:type="arc" />
    <path
       inkscape:connector-curvature="0"
       style="fill:url(#linearGradient4442);fill-opacity:1;stroke-width:0.026;stroke-miterlimit:4"
       d="m 12.467738,1027.3622 c -2.212457,0.042 -4.3929266,0.7289 -4.3232279,5.3125 -10.6621167,-2.872 -8.46977667,10.7203 -6.5493666,13.875 2.785,-3.1005 4.2743445,-1.8903 4.3554901,3.9375 1.9555222,1.154 2.675965,1.866 6.5171044,1.875 0.02355,10e-5 0.04073,0 0.06452,0 3.841138,-0.01 4.561581,-0.721 6.517104,-1.875 0.08115,-5.8278 1.57049,-7.038 4.35549,-3.9375 1.92041,-3.1547 4.11275,-16.747 -6.549367,-13.875 0.0697,-4.5838 -2.110673,-5.2708 -4.323227,-5.3125 -0.02135,-4e-4 -0.04317,3e-4 -0.06452,0 z"
       id="rect3780" />
    <path
       style="fill:#999999;stroke-width:0.026;stroke-miterlimit:4"
       d="m 7.463559,1033.1185 c -0.9771912,6.6065 0.188538,12.7683 2.647838,18.6615 l -3.3391857,-1.2061 c -0.4371405,-4.49 -0.6759981,-9.4122 -4.931613,-5.5804 -2.05280102,-6.8473 0.1690185,-13.8637 5.6229607,-11.875 z"
       id="rect3785"
       inkscape:connector-curvature="0"
       sodipodi:nodetypes="ccccc" />
    <path
       style="fill:#333333;stroke-width:0.026;stroke-miterlimit:4"
       d="m 6.2767363,1033.7981 c -0.6427912,3.564 -0.5902803,7.2963 0.8473514,11.3641 -1.2678475,-3.087 -2.9256939,-3.4352 -4.8885654,-1.6415 -0.7891849,-3.5414 0.3933963,-10.2045 4.041214,-9.7226 z"
       id="rect3795"
       inkscape:connector-curvature="0"
       sodipodi:nodetypes="cccc" />
    <path
       inkscape:connector-curvature="0"
       style="fill:#333333;stroke-width:0.026;stroke-miterlimit:4"
       d="m 12.467738,1032.0185 c -1.40165,-0.048 -2.8906334,0.3799 -4.000599,1.3437 -0.2365176,5.87 0.4416312,11.958 2.806872,18.5 l 1.193727,0.1563 0.06452,0 1.193727,-0.1563 c 2.365241,-6.542 3.043389,-12.63 2.806872,-18.5 -1.109966,-0.9638 -2.59895,-1.3918 -4.000599,-1.3437 -0.02149,7e-4 -0.04309,-10e-4 -0.06452,0 z"
       id="rect3788" />
    <path
       style="fill:#808080;stroke:none"
       d="m 12.599207,1032.5043 0,19.0279 0.03069,0 1.135705,-0.1486 c 2.25028,-6.2241 2.895466,-12.0162 2.670444,-17.6009 -1.056015,-0.9169 -2.472627,-1.3242 -3.806149,-1.2784 -0.01022,3e-4 -0.02045,2e-4 -0.03069,0 z"
       id="rect3909"
       inkscape:connector-curvature="0" />
    <path
       inkscape:connector-curvature="0"
       style="fill:#00ffff;fill-opacity:1;stroke-width:0.026;stroke-miterlimit:4"
       d="m 12.467738,1044.1122 0,0.031 -0.677521,0.2812 -0.580732,1.625 c 0.259567,0.9698 0.34207,2.3041 1.258253,2.2813 0.02325,-6e-4 0.04019,0 0.06452,0 0.916183,0.023 0.998686,-1.3115 1.258253,-2.2813 l -0.580732,-1.625 -0.677521,-0.2812 0,-0.031 -0.03226,0 -0.03226,0 z"
       id="rect3805" />
    <path
       id="path4444"
       d="m 12.469834,1034.5914 c -3.9614542,0.3449 -2.5437641,5.5044 -1.267062,13.3248 0.226448,-0.7582 0.600845,-1.0606 1.267062,-1.052 0.02172,-9e-4 0.03919,3e-4 0.06033,0 0.666217,-0.01 1.040614,0.323 1.267062,1.0813 1.276702,-7.8205 2.694391,-13.0092 -1.267062,-13.3541 -0.02101,0 -0.03903,0 -0.06033,0 z"
       style="fill:#333333;stroke-width:0.026;stroke-miterlimit:4"
       inkscape:connector-curvature="0" />
    <path
       inkscape:connector-curvature="0"
       style="fill:#008000;stroke-width:0.026;stroke-miterlimit:4"
       d="m 12.467738,1033.4872 c -4.2365218,0.3688 -2.7203926,5.8866 -1.355042,14.25 0.242171,-0.8109 0.642566,-1.1342 1.355042,-1.125 0.02323,-10e-4 0.0419,3e-4 0.06452,0 0.712476,-0.01 1.11287,0.3454 1.355042,1.1563 1.36535,-8.3635 2.881478,-13.9125 -1.355042,-14.2813 -0.02246,0 -0.04174,0 -0.06452,0 z"
       id="rect3800" />
    <path
       style="fill:#008000;stroke-width:0.026;stroke-miterlimit:4"
       d="m 7.2422099,1050.1963 c 0.1273294,-1.1044 -0.1662965,-3.2994 -0.4281189,-4.7209 l 0.5840644,0.1227 1.9703407,5.532 z"
       id="rect3841"
       inkscape:connector-curvature="0"
       sodipodi:nodetypes="ccccc" />
    <path
       sodipodi:nodetypes="ccccc"
       inkscape:connector-curvature="0"
       id="path3890"
       d="m 17.536442,1033.1237 c 0.97719,6.6065 -0.188538,12.7683 -2.647838,18.6615 l 3.339186,-1.2061 c 0.43714,-4.49 0.675997,-9.4122 4.931612,-5.5804 2.052802,-6.8473 -0.169019,-13.8637 -5.62296,-11.875 z"
       style="fill:#999999;stroke-width:0.026;stroke-miterlimit:4" />
    <path
       sodipodi:nodetypes="cccc"
       inkscape:connector-curvature="0"
       id="path3894"
       d="m 18.723264,1033.8033 c 0.642791,3.564 0.590281,7.2963 -0.847351,11.3641 1.267848,-3.087 2.925693,-3.4352 4.888565,-1.6415 0.789184,-3.5414 -0.393396,-10.2045 -4.041214,-9.7226 z"
       style="fill:#333333;stroke-width:0.026;stroke-miterlimit:4" />
    <path
       sodipodi:nodetypes="ccccc"
       inkscape:connector-curvature="0"
       id="path3900"
       d="m 17.757791,1050.2015 c -0.127329,-1.1044 0.166296,-3.2994 0.428119,-4.7209 l -0.584065,0.1227 -1.970341,5.532 z"
       style="fill:#008000;stroke-width:0.026;stroke-miterlimit:4" />
    <path
       inkscape:connector-curvature="0"
       style="fill:#008000;stroke-width:0.026;stroke-miterlimit:4"
       d="m 12.467738,1027.6747 c -1.925288,0.2011 -4.3458174,1.4207 -3.8392846,4.8125 1.2829364,-1.0208 2.5262856,-1.3508 3.8392846,-1.4687 0.0212,0 0.04336,0 0.06452,0 1.312998,0.1179 2.556347,0.4479 3.839284,1.4687 0.506532,-3.3918 -1.913997,-4.6114 -3.839284,-4.8125 -0.02054,0 -0.04412,0 -0.06452,0 z"
       id="rect3777" />
    <path
       style="fill:#00ff00;fill-rule:evenodd;stroke:none"
       d="m 12.520649,1033.7523 c -0.656562,4.2125 -0.153312,8.4251 0,12.6376 0.02236,0 0.04034,3e-4 0.06213,0 0.686018,-0.01 1.071543,0.3325 1.304722,1.1133 1.314649,-8.0529 2.774475,-13.3958 -1.304722,-13.7509 z"
       id="rect3130"
       inkscape:connector-curvature="0"
       sodipodi:nodetypes="cccccc" />
    <path
       style="fill:#00ff00;stroke:none"
       d="m 12.815505,1028.1063 c -0.02646,0 -0.05276,0.022 -0.07943,0.026 l 0,2.7181 c 0.0264,0 0.05295,0 0.07943,0 l 0.05295,0 c 1.077416,0.097 2.097679,0.3676 3.150428,1.2053 0.41565,-2.7833 -1.570582,-3.784 -3.150428,-3.9491 l -0.05295,0 z"
       id="rect3904"
       inkscape:connector-curvature="0" />
    <g
       transform="translate(-2.5947684e-7,-1.2802033e-5)"
       id="g3032">
      <path
         transform="matrix(1.3878165,0,0,1.8776342,20.391304,1008.2743)"
         d="m -4.6052946,16.823252 c 0,0.441208 -0.4839061,0.798877 -1.0808345,0.798877 -0.5969284,0 -1.0808345,-0.357669 -1.0808345,-0.798877 0,-0.441208 0.4839061,-0.798878 1.0808345,-0.798878 0.5969284,0 1.0808345,0.35767 1.0808345,0.798878 z"
         sodipodi:ry="0.79887766"
         sodipodi:rx="1.0808345"
         sodipodi:cy="16.823252"
         sodipodi:cx="-5.6861291"
         id="path3020"
         style="fill:#333333;fill-opacity:1;stroke:none"
         sodipodi:type="arc" />
      <path
         inkscape:connector-curvature="0"
         id="path3024"
         d="m 12.5,1038.3622 c -0.103553,0 -0.214854,0.011 -0.3125,0.031 0.01,0.9675 0.07331,1.9448 0.125,2.9375 0.06053,0.01 0.124958,0.031 0.1875,0.031 0.828427,0 1.5,-0.6716 1.5,-1.5 0,-0.8284 -0.671573,-1.5 -1.5,-1.5 z"
         style="fill:#ffffff;fill-opacity:1;stroke:none" />
      <path
         sodipodi:type="arc"
         style="fill:#000000;fill-opacity:1;stroke:none"
         id="path3030"
         sodipodi:cx="-5.6861291"
         sodipodi:cy="16.823252"
         sodipodi:rx="1.0808345"
         sodipodi:ry="0.79887766"
         d="m -4.6052946,16.823252 c 0,0.441208 -0.4839061,0.798877 -1.0808345,0.798877 -0.5969284,0 -1.0808345,-0.357669 -1.0808345,-0.798877 0,-0.441208 0.4839061,-0.798878 1.0808345,-0.798878 0.5969284,0 1.0808345,0.35767 1.0808345,0.798878 z"
         transform="matrix(1.0553188,0,0,1.4277843,18.500679,1015.8422)" />
    </g>
  </g>
</svg>
